<?xml version="1.0" standalone="no"?>
<!DOCTYPE svg PUBLIC "-//W3C//DTD SVG 1.0//EN" "http://www.w3.org/TR/2001/REC-SVG-20010904/DTD/svg10.dtd">
<svg xmlns="http://www.w3.org/2000/svg" xmlns:xlink="http://www.w3.org/1999/xlink" id="body_1" width="465" height="230">

<g transform="matrix(0.5095438 0 0 0.5095438 0.24956259 -0)">
    <path transform="matrix(1 0 0 1 -144.19917 -224.30788)"  d="M666.90717 666.03925C 655.15985 666.02936 645.64197 656.5035 645.64197 644.7561C 645.64197 633.0087 655.15985 623.48285 666.90717 623.4729L666.90717 623.4729L983.042 623.4729C 979.80304 617.5271 973.57544 613.82495 966.8047 613.82007L966.8047 613.82007L338.41257 613.82007C 321.34125 613.83923 307.513 627.68475 307.5151 644.75604C 307.52377 661.8228 321.34576 675.66205 338.41257 675.692L338.41257 675.692L966.8046 675.692C 973.5754 675.687 979.80286 671.98486 983.04193 666.0391L983.04193 666.0391L666.90717 666.03925z" stroke="none" fill="#CCCCCC" fill-rule="nonzero" />
    <path transform="matrix(1 0 0 1 -144.19917 -224.30788)"  d="M983.4618 635.2004L682.8911 635.2004C 681.93427 635.1966 681.1606 634.41986 681.1606 633.463C 681.1606 632.50616 681.93427 631.72943 682.8911 631.7256L682.8911 631.7256L983.4618 631.7256C 984.41864 631.72943 985.1923 632.50616 985.1923 633.463C 985.1923 634.41986 984.41864 635.1966 983.4618 635.2004z" stroke="none" fill="#CCCCCC" fill-rule="nonzero" />
    <path transform="matrix(1 0 0 1 -144.19917 -224.30788)"  d="M983.4618 646.49347L682.8911 646.49347C 681.933 646.4915 681.15735 645.71423 681.15735 644.7561C 681.15735 643.798 681.933 643.0207 682.8911 643.0187L682.8911 643.0187L983.4618 643.0187C 984.4199 643.0207 985.19556 643.798 985.19556 644.7561C 985.19556 645.71423 984.4199 646.4915 983.4618 646.49347z" stroke="none" fill="#CCCCCC" fill-rule="nonzero" />
    <path transform="matrix(1 0 0 1 -144.19917 -224.30788)"  d="M983.4618 657.78656L682.8911 657.78656C 681.93427 657.7828 681.1606 657.00604 681.1606 656.0492C 681.1606 655.09235 681.93427 654.3156 682.8911 654.31177L682.8911 654.31177L983.4618 654.31177C 984.41864 654.3156 985.1923 655.09235 985.1923 656.0492C 985.1923 657.00604 984.41864 657.7828 983.4618 657.78656z" stroke="none" fill="#CCCCCC" fill-rule="nonzero" />
    <path transform="matrix(1 0 0 1 -144.19917 -224.30788)"  d="M585.249 606.0989C 573.5017 606.0889 563.9838 596.56305 563.9838 584.8157C 563.9838 573.0683 573.5017 563.5424 585.249 563.53253L585.249 563.53253L901.3837 563.53253C 898.1449 557.5868 891.91754 553.88464 885.1469 553.87964L885.1469 553.87964L256.75485 553.87964C 239.68353 553.899 225.85521 567.74426 225.85686 584.8156C 225.86575 601.88257 239.68791 615.72174 256.75485 615.7516L256.75485 615.7516L885.1469 615.7516C 891.91754 615.7466 898.1449 612.0444 901.3837 606.09875L901.3837 606.09875L585.249 606.0989z" stroke="none" fill="#6C63FF" fill-rule="nonzero" />
    <path transform="matrix(1 0 0 1 -144.19917 -224.30788)"  d="M901.80383 575.26L601.2332 575.26C 600.27637 575.25616 599.5027 574.47943 599.5027 573.5226C 599.5027 572.56573 600.27637 571.789 601.2332 571.7852L601.2332 571.7852L901.80383 571.7852C 902.4254 571.7839 903.00037 572.11475 903.3115 572.65283C 903.6227 573.1909 903.6227 573.85425 903.3115 574.39233C 903.00037 574.9304 902.4254 575.2613 901.80383 575.26z" stroke="none" fill="#CCCCCC" fill-rule="nonzero" />
    <path transform="matrix(1 0 0 1 -144.19917 -224.30788)"  d="M901.80383 586.5531L601.2332 586.5531C 600.2751 586.5511 599.49945 585.7738 599.49945 584.8157C 599.49945 583.85754 600.2751 583.08026 601.2332 583.0783L601.2332 583.0783L901.80383 583.0783C 902.4254 583.07697 903.00037 583.40784 903.3115 583.9459C 903.6227 584.484 903.6227 585.14734 903.3115 585.6854C 903.00037 586.2235 902.4254 586.5544 901.80383 586.5531z" stroke="none" fill="#CCCCCC" fill-rule="nonzero" />
    <path transform="matrix(1 0 0 1 -144.19917 -224.30788)"  d="M901.80383 597.8462L601.2332 597.8462C 600.27637 597.84235 599.5027 597.0656 599.5027 596.10876C 599.5027 595.1519 600.27637 594.3752 601.2332 594.3714L601.2332 594.3714L901.80383 594.3714C 902.4262 594.3689 903.0023 594.6995 903.3142 595.2381C 903.6261 595.7766 903.6261 596.4409 903.3142 596.97943C 903.0023 597.518 902.4262 597.84863 901.80383 597.8462z" stroke="none" fill="#CCCCCC" fill-rule="nonzero" />
    <path transform="matrix(1 0 0 1 -144.19917 -224.30788)"  d="M503.59128 544.1585C 491.84393 544.14856 482.32608 534.6227 482.32608 522.8753C 482.32608 511.12793 491.84393 501.60205 503.59128 501.5921L503.59128 501.5921L819.726 501.5921C 816.48706 495.64655 810.25977 491.94437 803.4892 491.9392L803.4892 491.9392L175.09663 491.9392C 158.02534 491.95834 144.19707 505.80386 144.19917 522.8752C 144.20782 539.94196 158.0298 553.7812 175.09663 553.81116L175.09663 553.81116L803.4892 553.81116C 810.25977 553.80615 816.4871 550.104 819.726 544.1584L819.726 544.1584L503.59128 544.1585z" stroke="none" fill="#CCCCCC" fill-rule="nonzero" />
    <path transform="matrix(1 0 0 1 -144.19917 -224.30788)"  d="M820.14594 513.3196L519.5753 513.3196C 518.6158 513.3196 517.8379 512.5417 517.8379 511.58215C 517.8379 510.62262 518.6158 509.84476 519.5753 509.84476L519.5753 509.84476L820.14594 509.84476C 820.76666 509.84473 821.3402 510.1759 821.6506 510.71344C 821.96094 511.251 821.96094 511.9133 821.6506 512.45087C 821.3402 512.9884 820.76666 513.3196 820.14594 513.3196z" stroke="none" fill="#CCCCCC" fill-rule="nonzero" />
    <path transform="matrix(1 0 0 1 -144.19917 -224.30788)"  d="M820.14594 524.6127L519.5753 524.6127C 518.95374 524.61395 518.3788 524.2831 518.0676 523.745C 517.7565 523.2069 517.7565 522.5436 518.0676 522.0055C 518.3788 521.4674 518.95374 521.13654 519.5753 521.1379L519.5753 521.1379L820.14594 521.1379C 820.7675 521.13654 821.34247 521.4674 821.6536 522.0055C 821.9648 522.5436 821.9648 523.2069 821.6536 523.745C 821.34247 524.2831 820.7675 524.61395 820.14594 524.6127z" stroke="none" fill="#CCCCCC" fill-rule="nonzero" />
    <path transform="matrix(1 0 0 1 -144.19917 -224.30788)"  d="M820.14594 535.9058L519.5753 535.9058C 518.6172 535.9039 517.84155 535.1266 517.84155 534.16846C 517.84155 533.2103 518.6172 532.43304 519.5753 532.431L519.5753 532.431L820.14594 532.431C 820.7675 532.42975 821.34247 532.7606 821.6536 533.2987C 821.9648 533.8368 821.9648 534.5001 821.6536 535.0382C 821.34247 535.5763 820.7675 535.90717 820.14594 535.9058z" stroke="none" fill="#CCCCCC" fill-rule="nonzero" />
    <path transform="matrix(1 0 0 1 -144.19917 -224.30788)"  d="M827.08685 412.0217C 823.6658 412.01645 820.8342 409.36032 820.61053 405.9465L820.61053 405.9465L819.64594 391.2185C 819.4113 387.63626 822.125 384.54205 825.7072 384.30737L825.7072 384.30737L941.09467 376.75073C 946.04297 376.4267 950.7882 378.76712 953.54297 382.8904C 956.2977 387.0137 956.64343 392.29343 954.44995 396.74075C 952.2565 401.18808 947.857 404.12738 942.9087 404.45142L942.9087 404.45142L827.5215 412.00757C 827.3762 412.01685 827.2313 412.02158 827.08685 412.0217z" stroke="none" fill="#6C63FF" fill-rule="nonzero" />
    <path transform="matrix(1 0 0 1 -144.19917 -224.30788)"  d="M849.83954 413.92065C 846.3468 413.9148 843.4814 411.153 843.34686 407.66284L843.34686 407.66284L842.5246 385.66486C 842.4602 383.94214 843.0828 382.26443 844.2555 381.00082C 845.42816 379.73724 847.0548 378.99127 848.7775 378.92706L848.7775 378.92706L943.66376 375.38068C 947.2511 375.24677 950.2679 378.04623 950.40204 381.6336L950.40204 381.6336L951.2243 403.6316C 951.2887 405.35428 950.6661 407.03198 949.4934 408.2956C 948.3207 409.5592 946.6941 410.30518 944.9714 410.3694L944.9714 410.3694L850.08514 413.91577C 850.0031 413.91916 849.92084 413.92065 849.83954 413.92065z" stroke="none" fill="#2F2E41" fill-rule="nonzero" />
    <path transform="matrix(1 0 0 1 -144.19917 -224.30788)"  d="M961.031 616.7014L946.2712 616.7014C 942.68304 616.6973 939.77527 613.78955 939.7712 610.2014L939.7712 610.2014L939.7712 487.18723C 939.77527 483.59906 942.68304 480.69128 946.2712 480.68723L946.2712 480.68723L961.031 480.68723C 964.61914 480.69128 967.5269 483.59906 967.531 487.18723L967.531 487.18723L967.531 610.2014C 967.5269 613.78955 964.61914 616.6973 961.031 616.7014z" stroke="none" fill="#2F2E41" fill-rule="nonzero" />
    <path transform="matrix(1 0 0 1 -144.19917 -224.30788)"  d="M895.5184 551.6772L882.8965 544.0266C 879.83014 542.1632 878.8507 538.1693 880.70715 535.09875L880.70715 535.09875L944.47144 429.9008C 946.33484 426.8344 950.32874 425.855 953.3993 427.71146L953.3993 427.71146L966.0212 435.36206C 969.0875 437.22543 970.06696 441.2193 968.2105 444.28992L968.2105 444.28992L904.4462 549.4878C 902.5829 552.55426 898.589 553.5337 895.5184 551.6772z" stroke="none" fill="#2F2E41" fill-rule="nonzero" />
    <path d="M845.41486 77.0007C 845.4149 91.08397 840.43567 103.10478 830.4773 113.06315C 820.5189 123.021515 808.49817 128.0007 794.41486 128.0007C 780.33167 128.0007 768.3108 123.021515 758.3524 113.06315C 748.39404 103.10478 743.4149 91.08397 743.41486 77.0007C 743.4149 62.917442 748.39404 50.89663 758.3524 40.938255C 768.3108 30.979887 780.33167 26.000702 794.41486 26.000702C 808.49817 26.000702 820.5189 30.979887 830.4773 40.938255C 840.43567 50.89663 845.4149 62.917442 845.41486 77.0007C 845.4149 77.59418 845.40454 78.18747 845.3838 78.78058" stroke="none" fill="#6C63FF" fill-rule="nonzero" />
    <path transform="matrix(1 0 0 1 -144.19917 -224.30788)"  d="M911.00806 318.72177C 909.36755 318.18274 907.8615 317.29868 906.5912 316.12906C 904.8875 314.4386 904.0174 312.08203 904.2137 309.69006C 904.32184 307.98337 905.2218 306.42538 906.64624 305.47897C 908.47003 304.30908 910.9093 304.3056 913.3929 305.40012L913.3929 305.40012L913.2989 285.49045L915.29877 285.48093L915.4094 308.88684L913.8684 307.9175C 912.0815 306.79538 909.52954 306.00552 907.7263 307.1625C 906.8231 307.7821 906.2605 308.7875 906.2048 309.88144C 906.0683 311.66263 906.71356 313.41504 907.97253 314.68237C 910.18097 316.79193 913.40295 317.4516 917.0772 318.04114L917.0772 318.04114L916.7602 320.01566C 914.80804 319.75705 912.88293 319.32404 911.00806 318.72177z" stroke="none" fill="#2F2E41" fill-rule="nonzero" />
    <path transform="matrix(0.13092759 -0.99139196 0.99139196 0.13092759 352.41544 914.56573)"  d="M896.89087 280.79507L898.8906 280.79507L898.8906 291.56674L896.89087 291.56674z" stroke="none" fill="#2F2E41" fill-rule="nonzero" />
    <path transform="matrix(0.13092759 -0.99139196 0.99139196 0.13092759 377.29755 951.85077)"  d="M930.5983 285.2455L932.5981 285.2455L932.5981 296.01718L930.5983 296.01718z" stroke="none" fill="#2F2E41" fill-rule="nonzero" />
    <path transform="matrix(1 0 0 1 -144.19917 -224.30788)"  d="M981.19916 520.19214L895.19916 520.19214C 890.5069 520.1869 886.7044 516.3844 886.69916 511.69214L886.69916 511.69214L904.7033 373.6277C 904.7332 368.95776 908.5292 365.18875 913.19916 365.19214L913.19916 365.19214L943.7192 365.19214C 969.1013 365.2208 989.6705 385.78995 989.69916 411.17215L989.69916 411.17215L989.69916 511.69214C 989.6939 516.3844 985.8914 520.1869 981.19916 520.19214z" stroke="none" fill="#2F2E41" fill-rule="nonzero" />
    <path transform="matrix(1 0 0 1 -144.19917 -224.30788)"  d="M1055.1898 465.7891C 1056.2748 468.1115 1055.8961 470.8545 1054.2224 472.796L1054.2224 472.796L1044.573 483.96457C 1043.446 485.2691 1041.8469 486.07248 1040.1276 486.1979C 1038.4083 486.32336 1036.7095 485.7606 1035.4052 484.63345L1035.4052 484.63345L947.9043 409.03638C 944.1521 405.7946 942.41437 400.7973 943.3457 395.9269C 944.27704 391.0565 947.73596 387.05292 952.41956 385.4243C 957.1031 383.79565 962.29974 384.78937 966.05194 388.03116L966.05194 388.03116L1053.5531 463.6278C 1054.2454 464.22443 1054.8031 464.96103 1055.1898 465.7891z" stroke="none" fill="#6C63FF" fill-rule="nonzero" />
    <path transform="matrix(1 0 0 1 -144.19917 -224.30788)"  d="M1035.8773 440.84143C 1036.9624 443.1638 1036.5836 445.90668 1034.9098 447.84808L1034.9098 447.84808L1018.42816 466.92477C 1016.0793 469.6371 1011.9781 469.93634 1009.2603 467.5937L1009.2603 467.5937L937.40967 405.51752C 936.10504 404.3906 935.30164 402.79153 935.1761 401.07214C 935.0506 399.35278 935.61334 397.65396 936.7405 396.34952L936.7405 396.34952L953.2216 377.27304C 954.3486 375.96854 955.94763 375.16516 957.667 375.03973C 959.38635 374.91428 961.0851 375.47702 962.38947 376.60413L962.38947 376.60413L1034.2406 438.6801C 1034.9327 439.27692 1035.4905 440.01352 1035.8773 440.84143z" stroke="none" fill="#2F2E41" fill-rule="nonzero" />
    <path transform="matrix(1 0 0 1 -144.19917 -224.30788)"  d="M939.5678 271.06052C 932.7502 265.4187 923.63654 270.7547 915.92664 269.99734C 908.5504 269.27277 902.61346 262.7814 900.9956 255.79604C 899.1081 247.64644 903.19946 239.36804 909.3625 234.14743C 916.11255 228.4296 925.1751 226.65279 933.81146 227.52286C 943.70984 228.52005 952.8292 232.95193 961.03937 238.36613C 968.96094 243.42569 976.2705 249.38487 982.82227 256.12473C 988.693 262.366 993.70856 269.8431 995.42664 278.35907C 996.988 286.09833 996.07196 294.72476 991.60596 301.39096C 989.23553 304.8092 986.0242 307.5589 982.28174 309.3748C 978.3817 311.3827 974.2086 312.84442 970.4362 315.10254C 964.7323 318.5168 959.25775 325.47552 961.19965 332.57208C 961.61646 334.12247 962.4081 335.5466 963.5048 336.7191C 964.82245 338.12708 967.11414 336.18988 965.793 334.7782C 963.4727 332.29877 963.4983 328.93283 964.6521 325.89804C 966.02765 322.4769 968.52435 319.62436 971.73315 317.8078C 975.68207 315.44943 980.063 313.9568 984.11523 311.79996C 987.99567 309.8263 991.3418 306.9443 993.86884 303.3993C 998.63684 296.50046 999.9335 287.61542 998.6671 279.44278C 997.29675 270.5988 992.58795 262.62802 986.7487 255.9845C 980.39404 248.7545 972.64154 242.6795 964.7362 237.2399C 956.2537 231.40312 946.9118 226.50977 936.6461 224.87076C 927.7474 223.45 918.15314 224.61108 910.48975 229.59142C 903.3365 234.24022 897.93286 242.10597 897.54553 250.78781C 897.29456 258.82907 901.40686 266.37866 908.29877 270.52917C 911.76984 272.51782 915.7777 273.36642 919.75696 272.9553C 924.01263 272.6016 928.25275 271.21582 932.54767 271.49658C 934.4903 271.5775 936.35364 272.2895 937.8552 273.5246C 939.3448 274.75726 941.04517 272.28308 939.5678 271.06055L939.5678 271.06055L939.5678 271.06052z" stroke="none" fill="#2F2E41" fill-rule="nonzero" />
    <path transform="matrix(1 0 0 1 -144.19917 -224.30788)"  d="M879.59863 536.87585C 879.61694 536.76306 879.63837 536.65045 879.66284 536.538C 880.022 534.85095 881.04126 533.3777 882.4934 532.4469L882.4934 532.4469L894.8965 524.4468C 897.91406 522.5055 901.9336 523.37286 903.8821 526.3858L903.8821 526.3858L942.1432 585.70557C 944.0885 588.7224 943.22046 592.745 940.20416 594.69116L940.20416 594.69116L927.80066 602.69116C 924.7831 604.6325 920.7636 603.76514 918.81506 600.75214L918.81506 600.75214L880.55396 541.4324C 879.6796 540.0853 879.339 538.4607 879.59863 536.87585z" stroke="none" fill="#2F2E41" fill-rule="nonzero" />
</g>
</svg>